<?xml version="1.0" encoding="iso-8859-1"?>
<!-- Generator: Adobe Illustrator 19.0.0, SVG Export Plug-In . SVG Version: 6.00 Build 0)  -->
<svg version="1.1" id="Capa_1" xmlns="http://www.w3.org/2000/svg" xmlns:xlink="http://www.w3.org/1999/xlink" x="0px" y="0px"
	 viewBox="0 0 512 512" style="enable-background:new 0 0 512 512;" xml:space="preserve">
<g>
	<g>
		<path d="M494.199,180.017H329.771c-9.815,0-17.801,7.986-17.801,17.801v72.516c0,4.213,3.416,7.629,7.629,7.629
			s7.629-3.416,7.629-7.629v-34.006h71.542c1.402,0,2.543,1.141,2.543,2.543v151.175c0,1.402-1.141,2.543-2.543,2.543h-71.542
			v-87.474c0-4.213-3.416-7.629-7.629-7.629s-7.629,3.416-7.629,7.629v176.303c0,9.815,7.986,17.801,17.801,17.801h164.428
			c9.815,0,17.801-7.986,17.801-17.801V197.818C512,188.003,504.014,180.017,494.199,180.017z M327.228,407.848h71.541v-0.001
			c9.815,0,17.801-7.986,17.801-17.801V238.871c0-9.815-7.986-17.801-17.801-17.801h-71.542v-23.252
			c0-1.402,1.141-2.543,2.543-2.543h164.428c1.402,0,2.543,1.141,2.543,2.543v242.411H327.228V407.848z M496.742,481.418
			c0,1.402-1.141,2.543-2.543,2.543H329.771c-1.402,0-2.543-1.141-2.543-2.543v-25.932h169.514V481.418z"/>
	</g>
</g>
<g>
	<g>
		<path d="M276.226,90.729h-87.466c-4.213,0-7.629,3.416-7.629,7.629s3.416,7.629,7.629,7.629h87.466
			c4.213,0,7.629-3.416,7.629-7.629S280.439,90.729,276.226,90.729z"/>
	</g>
</g>
<g>
	<g>
		<path d="M281.62,52.682l-37.666-37.666c-2.979-2.979-7.81-2.979-10.788,0c-2.979,2.979-2.979,7.81,0,10.788l37.666,37.666
			c1.489,1.489,3.442,2.235,5.394,2.235s3.905-0.745,5.394-2.235C284.599,60.491,284.599,55.661,281.62,52.682z"/>
	</g>
</g>
<g>
	<g>
		<path d="M281.619,133.245c-2.978-2.979-7.809-2.979-10.788,0l-37.666,37.666c-2.979,2.979-2.979,7.81,0,10.788
			c1.489,1.49,3.442,2.235,5.394,2.235s3.905-0.745,5.394-2.235l37.666-37.666C284.598,141.054,284.598,136.223,281.619,133.245z"/>
	</g>
</g>
<g>
	<g>
		<path d="M485.926,156.407c-7.969-18.84-22.522-33.453-40.322-41.65V68.249c0-9.815-7.986-17.801-17.801-17.801h-31.636
			c-9.815,0-17.801,7.986-17.801,17.801v46.63c-18.604,8.645-33.746,24.253-41.335,44.044c-1.508,3.934,0.458,8.346,4.392,9.855
			c0.898,0.344,1.822,0.508,2.73,0.508c3.068,0,5.961-1.865,7.125-4.9c9.571-24.96,33.967-41.73,60.708-41.73
			c8.011,0,15.77,1.466,22.976,4.182c0.196,0.084,0.398,0.158,0.601,0.225c16.073,6.241,29.319,18.759,36.31,35.29
			c1.642,3.88,6.115,5.695,9.999,4.055C485.752,164.764,487.567,160.287,485.926,156.407z M430.346,109.519
			c-5.932-1.387-12.083-2.122-18.361-2.122c-6.26,0-12.415,0.748-18.362,2.165V68.249h0c0-1.402,1.141-2.543,2.543-2.543h31.636
			c1.402,0,2.543,1.141,2.543,2.543V109.519z"/>
	</g>
</g>
<g>
	<g>
		<path d="M258.941,234.142h-74.421c0.12-0.833,0.203-1.677,0.203-2.543v-72.589c0-9.815-7.986-17.801-17.801-17.801H17.801
			C7.986,141.21,0,149.196,0,159.011v72.589c0,9.815,7.986,17.801,17.801,17.801h74.421c-0.12,0.833-0.203,1.677-0.203,2.543v72.589
			c0,0.99,0.102,1.955,0.258,2.902H18.714c-9.815,0-17.801,7.986-17.801,17.801v72.589c0,9.815,7.986,17.801,17.801,17.801h149.121
			c9.815,0,17.801-7.986,17.801-17.801v-72.589c0-0.99-0.102-1.955-0.258-2.902h73.562c9.815,0,17.801-7.986,17.801-17.801v-72.589
			C276.742,242.127,268.756,234.142,258.941,234.142z M17.801,234.142c-1.402,0-2.543-1.141-2.543-2.543v-72.589
			c0-1.402,1.141-2.543,2.543-2.543h149.121c1.402,0,2.543,1.141,2.543,2.543v72.589c0,1.402-1.141,2.543-2.543,2.543h-57.103
			H17.801z M167.836,420.366H18.714c-1.402,0-2.543-1.141-2.543-2.543v-72.589c0-1.402,1.141-2.543,2.543-2.543h149.121
			c1.402,0,2.543,1.141,2.543,2.543v72.589h0.001C170.379,419.224,169.238,420.366,167.836,420.366z M258.941,327.075H109.819
			c-1.402,0-2.543-1.141-2.543-2.543v-72.589c0-1.402,1.141-2.543,2.543-2.543h57.103h92.018c1.402,0,2.543,1.141,2.543,2.543
			v72.589h0.001C261.484,325.934,260.343,327.075,258.941,327.075z"/>
	</g>
</g>
<g>
</g>
<g>
</g>
<g>
</g>
<g>
</g>
<g>
</g>
<g>
</g>
<g>
</g>
<g>
</g>
<g>
</g>
<g>
</g>
<g>
</g>
<g>
</g>
<g>
</g>
<g>
</g>
<g>
</g>
</svg>
