<?xml version="1.0" encoding="iso-8859-1"?>
<!-- Generator: Adobe Illustrator 19.0.0, SVG Export Plug-In . SVG Version: 6.00 Build 0)  -->
<svg version="1.1" id="Capa_1" xmlns="http://www.w3.org/2000/svg" xmlns:xlink="http://www.w3.org/1999/xlink" x="0px" y="0px"
	 viewBox="0 0 512 512" style="enable-background:new 0 0 512 512;" xml:space="preserve">
<g>
	<g>
		<rect x="126" width="163" height="96"/>
	</g>
</g>
<g>
	<g>
		<polygon points="144.385,274.779 144.014,317.258 165.446,311.515 		"/>
	</g>
</g>
<g>
	<g>
		<polygon points="223,126 223,155.574 333.371,126 		"/>
	</g>
</g>
<g>
	<g>
		<path d="M433.135,318.747l-31.804-118.693l-23.663,6.34l24.039,89.715l-32.397,8.681l-24.039-89.715l-34.058,9.126l-7.568-28.244
			l90.118-24.147l-7.734-28.862L78.865,225.253l33.308,124.308l10.05-104.992l26.25-7.034l75.468,106.206l-34.225,9.171
			l-13.332-21.179l-31.4,8.414l-0.79,24.963l-25.988,6.964l7.75,28.926H126v0.044L433.135,318.747z M201.137,223.424l54.161-14.512
			c5.758-1.543,11.394-1.776,16.907-0.702c5.511,1.077,10.524,3.056,15.036,5.943c4.513,2.886,8.427,6.529,11.741,10.921
			c3.315,4.396,5.639,9.085,6.975,14.068c1.84,6.869,2.059,13.666,0.656,20.391c-1.402,6.727-4.257,12.687-8.565,17.876
			l38.201,36.24l-36.551,9.794l-32.134-30.209l-12.128,3.25l9.705,36.219l-32.397,8.681L201.137,223.424z"/>
	</g>
</g>
<g>
	<g>
		<polygon points="186.093,416 126,432.102 126,512 289,512 289,416 		"/>
	</g>
</g>
<g>
	<g>
		<path d="M273.061,247.957c-1.097-4.096-2.933-6.96-5.506-8.585c-2.572-1.626-4.855-2.171-6.849-1.637l-19.604,5.253l6.767,25.253
			l20.435-5.476c1.994-0.534,3.551-2.137,4.675-4.814C274.101,255.277,274.13,251.944,273.061,247.957z"/>
	</g>
</g>
<g>
	<g>
		<polygon points="0,126 0,193 83.325,193 193,163.612 193,126 		"/>
	</g>
</g>
<g>
	<g>
		<polygon points="298.054,386 386,386 386,362.435 		"/>
	</g>
</g>
<g>
	<g>
		<polygon points="72.927,319 0,319 0,386 90.879,386 		"/>
	</g>
</g>
<g>
	<g>
		<rect y="416" width="96" height="96"/>
	</g>
</g>
<g>
	<g>
		<rect width="96" height="96"/>
	</g>
</g>
<g>
	<g>
		<rect x="319" width="193" height="96"/>
	</g>
</g>
<g>
	<g>
		<rect x="319" y="416" width="193" height="96"/>
	</g>
</g>
<g>
	<g>
		<polygon points="47.203,223 0,223 0,289 64.888,289 		"/>
	</g>
</g>
<g>
	<g>
		<polygon points="412.546,126 430.499,193 512,193 512,126 		"/>
	</g>
</g>
<g>
	<g>
		<polygon points="464.261,319 469.877,339.96 416,354.396 416,386 512,386 512,319 		"/>
	</g>
</g>
<g>
	<g>
		<polygon points="438.538,223 456.222,289 512,289 512,223 		"/>
	</g>
</g>
<g>
</g>
<g>
</g>
<g>
</g>
<g>
</g>
<g>
</g>
<g>
</g>
<g>
</g>
<g>
</g>
<g>
</g>
<g>
</g>
<g>
</g>
<g>
</g>
<g>
</g>
<g>
</g>
<g>
</g>
</svg>
