<svg height="512pt" viewBox="-108 0 512 512" width="512pt" xmlns="http://www.w3.org/2000/svg"><path d="m173.164062 13.503906v54.261719c0 3.3125-2.683593 6-6 6h-37.699218c-3.316406 0-6-2.6875-6-6v-54.261719c0-3.316406 2.683594-6 6-6h37.699218c3.316407 0 6 2.683594 6 6zm0 0" fill="#c3ddf4"/><path d="m167.164062 7.503906h-24c3.316407 0 6 2.683594 6 6v54.261719c0 3.3125-2.683593 6-6 6h24c3.316407 0 6-2.6875 6-6v-54.261719c0-3.316406-2.683593-6-6-6zm0 0" fill="#9cc2ed"/><path d="m106.898438 139.332031v-34.714843c0-3.316407 2.6875-6 6-6h70.832031c3.316406 0 6 2.683593 6 6v34.714843zm0 0" fill="#ffaf10"/><path d="m183.730469 98.617188h-24c3.316406 0 6 2.6875 6 6v34.71875h24v-34.71875c0-3.3125-2.683594-6-6-6zm0 0" fill="#ff890a"/><path d="m247.714844 195v-30.117188c0-18.300781-14.835938-33.132812-33.132813-33.132812h-132.535156c-18.300781 0-33.132813 14.832031-33.132813 33.132812v30.117188zm0 0" fill="#717b99"/><path d="m214.582031 131.75h-24c18.296875 0 33.132813 14.832031 33.132813 33.132812v30.117188h24v-30.117188c0-18.300781-14.835938-33.132812-33.132813-33.132812zm0 0" fill="#5c647d"/><path d="m32.351562 215.667969h231.929688v254.613281h-231.929688zm0 0" fill="#fe3745"/><path d="m240.277344 215.667969h24v254.613281h-24zm0 0" fill="#e32936"/><path d="m225.148438 355.398438h-153.667969c-3.3125 0-6-2.6875-6-6v-70.832032c0-3.316406 2.6875-6 6-6h153.667969c3.3125 0 6 2.683594 6 6v70.832032c0 3.3125-2.6875 6-6 6zm0 0" fill="#fff"/><path d="m231.148438 405.097656c0 9.148438-7.417969 16.566406-16.566407 16.566406-9.152343 0-16.566406-7.417968-16.566406-16.566406 0-9.148437 7.414063-16.566406 16.566406-16.566406 9.148438 0 16.566407 7.417969 16.566407 16.566406zm0 0" fill="#69cdff"/><path d="m32.351562 504.5c-13.726562 0-24.851562-11.125-24.851562-24.851562 0-13.722657 11.125-24.851563 24.851562-24.851563h231.929688c13.722656 0 24.851562 11.128906 24.851562 24.851563 0 13.726562-11.128906 24.851562-24.851562 24.851562zm0 0" fill="#c3ddf4"/><path d="m32.351562 231.148438c-13.726562 0-24.851562-11.125-24.851562-24.851563s11.125-24.851563 24.851562-24.851563h231.929688c13.722656 0 24.851562 11.125 24.851562 24.851563s-11.128906 24.851563-24.851562 24.851563zm0 0" fill="#c3ddf4"/><path d="m264.277344 181.445312h-24c13.726562 0 24.851562 11.125 24.851562 24.851563s-11.125 24.851563-24.851562 24.851563h24c13.726562 0 24.851562-11.125 24.851562-24.851563s-11.125-24.851563-24.851562-24.851563zm0 0" fill="#9cc2ed"/><path d="m264.277344 454.796875h-24c13.726562 0 24.851562 11.128906 24.851562 24.851563 0 13.726562-11.125 24.851562-24.851562 24.851562h24c13.726562 0 24.851562-11.125 24.851562-24.851562 0-13.722657-11.125-24.851563-24.851562-24.851563zm0 0" fill="#9cc2ed"/><path d="m225.148438 272.566406h-24c3.3125 0 6 2.683594 6 6v70.832032c0 3.3125-2.6875 6-6 6h24c3.3125 0 6-2.6875 6-6v-70.832032c0-3.316406-2.6875-6-6-6zm0 0" fill="#dae9f7"/><path d="m271.78125 448.183594v-210.421875c14.230469-3.394531 24.851562-16.207031 24.851562-31.464844 0-17.835937-14.515624-32.351563-32.351562-32.351563h-9.066406v-9.0625c0-22.40625-18.226563-40.632812-40.632813-40.632812h-17.347656v-25.632812c0-4.144532-3.359375-7.5-7.5-7.5h-33.917969v-9.851563h17.351563c4.140625 0 7.5-3.359375 7.5-7.5v-66.261719c0-4.144531-3.359375-7.49999975-7.5-7.49999975h-49.703125c-4.140625 0-7.5 3.35546875-7.5 7.49999975v66.261719c0 4.144531 3.359375 7.5 7.5 7.5h17.351562v9.851563h-33.917968c-4.140626 0-7.5 3.355468-7.5 7.5v25.632812h-17.351563c-22.402344 0-40.632813 18.226562-40.632813 40.632812v9.0625h-9.0625c-17.835937 0-32.351562 14.515626-32.351562 32.351563 0 15.257813 10.621094 28.074219 24.851562 31.464844v152.308593c0 4.144532 3.359376 7.5 7.5 7.5 4.140626 0 7.5-3.355468 7.5-7.5v-151.421874h216.929688v208.648437h-216.929688v-27.175781c0-4.144532-3.359374-7.5-7.5-7.5-4.140624 0-7.5 3.355468-7.5 7.5v28.0625c-14.234374 3.394531-24.851562 16.210937-24.851562 31.464844 0 17.839843 14.511719 32.351562 32.351562 32.351562h231.929688c17.835938 0 32.351562-14.511719 32.351562-32.351562-.003906-15.253907-10.621093-28.070313-24.851562-31.464844zm-140.816406-433.179688h34.699218v18.128906h-9.066406c-4.140625 0-7.5 3.359376-7.5 7.5 0 4.144532 3.359375 7.5 7.5 7.5h9.066406v18.132813h-17.332031c-.007812 0-.011719 0-.019531 0-.003906 0-.011719 0-.015625 0h-17.332031zm-16.566406 91.113282h67.832031v18.132812h-67.832031zm-57.984376 58.765624c0-14.136718 11.5-25.632812 25.632813-25.632812h24.8125.039063.039062 82.753906.039063.039062 24.8125c14.132813 0 25.632813 11.496094 25.632813 25.632812v9.0625h-183.800782zm-41.414062 41.414063c0-9.566406 7.785156-17.351563 17.351562-17.351563h16.523438c.015625 0 .027344.003907.039062.003907.015626 0 .027344-.003907.039063-.003907h198.722656c.011719 0 .023438.003907.039063.003907.011718 0 .023437-.003907.039062-.003907h16.527344c9.566406 0 17.351562 7.785157 17.351562 17.351563s-7.785156 17.351563-17.351562 17.351563h-231.929688c-9.570312 0-17.351562-7.785157-17.351562-17.351563zm249.277344 290.703125h-231.925782c-9.566406 0-17.351562-7.78125-17.351562-17.351562 0-9.566407 7.785156-17.351563 17.351562-17.351563h231.929688c9.566406 0 17.351562 7.785156 17.351562 17.351563-.003906 9.570312-7.785156 17.351562-17.355468 17.351562zm0 0"/><path d="m214.582031 48.132812h16.566407c4.140624 0 7.5-3.355468 7.5-7.5 0-4.144531-3.359376-7.5-7.5-7.5h-16.566407c-4.144531 0-7.5 3.355469-7.5 7.5 0 4.144532 3.355469 7.5 7.5 7.5zm0 0"/><path d="m255.996094 15h16.566406c4.144531 0 7.5-3.355469 7.5-7.5s-3.355469-7.5-7.5-7.5h-16.566406c-4.140625 0-7.5 3.355469-7.5 7.5s3.359375 7.5 7.5 7.5zm0 0"/><path d="m255.996094 82.304688h16.566406c4.144531 0 7.5-3.359376 7.5-7.5 0-4.144532-3.355469-7.5-7.5-7.5h-16.566406c-4.140625 0-7.5 3.355468-7.5 7.5 0 4.140624 3.359375 7.5 7.5 7.5zm0 0"/><path d="m231.148438 265.066406h-165.667969c-4.140625 0-7.5 3.355469-7.5 7.5v82.832032c0 4.140624 3.359375 7.5 7.5 7.5h165.667969c4.140624 0 7.5-3.359376 7.5-7.5v-82.832032c0-4.144531-3.359376-7.5-7.5-7.5zm-7.5 82.832032h-150.667969v-67.832032h150.667969zm0 0"/><path d="m106.898438 304.914062h82.832031c4.140625 0 7.5-3.355468 7.5-7.5 0-4.140624-3.359375-7.5-7.5-7.5h-82.832031c-4.140626 0-7.5 3.359376-7.5 7.5 0 4.144532 3.359374 7.5 7.5 7.5zm0 0"/><path d="m164.878906 314.765625h-33.132812c-4.140625 0-7.5 3.355469-7.5 7.5 0 4.140625 3.359375 7.5 7.5 7.5h33.132812c4.144532 0 7.5-3.359375 7.5-7.5 0-4.144531-3.355468-7.5-7.5-7.5zm0 0"/><path d="m214.582031 381.03125c-13.273437 0-24.066406 10.796875-24.066406 24.066406 0 13.269532 10.792969 24.066406 24.066406 24.066406 13.269531 0 24.066407-10.796874 24.066407-24.066406 0-13.269531-10.796876-24.066406-24.066407-24.066406zm0 33.132812c-5 0-9.066406-4.066406-9.066406-9.066406s4.066406-9.066406 9.066406-9.066406 9.066407 4.066406 9.066407 9.066406-4.066407 9.066406-9.066407 9.066406zm0 0"/></svg>